<?xml version="1.0" encoding="UTF-8"?>
<svg width="700pt" height="700pt" version="1.1" viewBox="0 0 700 700" xmlns="http://www.w3.org/2000/svg">
 <path d="m576.57 473.43-126-126c24.734-31.5 39.434-70.934 39.434-114.1 0-102.9-83.766-186.67-186.67-186.67-102.9 0-186.67 83.766-186.67 186.67 0 102.9 83.766 186.67 186.67 186.67 43.168 0 82.602-14.699 114.33-39.434l126 126c4.4375 4.4336 10.27 6.7656 16.336 6.7656s11.898-2.332 16.566-6.7656c9.1016-9.1016 9.1016-24.031 0-33.133zm-413.23-240.1c0-77.234 62.766-140 140-140s140 62.766 140 140-62.766 140-140 140c-77.23 0-140-62.766-140-140z"/>
</svg>
